{
    "asset" : {
        "generator" : "Khronos glTF Blender I/O v1.8.19",
        "version" : "2.0"
    },
    "scene" : 0,
    "scenes" : [
        {
            "name" : "Scene",
            "nodes" : [
                0
            ]
        }
    ],
    "nodes" : [
        {
            "mesh" : 0,
            "name" : "body"
        }
    ],
    "materials" : [
        {
            "doubleSided" : true,
            "name" : "02_Body",
            "normalTexture" : {
                "index" : 0
            },
            "pbrMetallicRoughness" : {
                "baseColorTexture" : {
                    "index" : 1
                },
                "metallicRoughnessTexture" : {
                    "index" : 2
                }
            }
        }
    ],
    "meshes" : [
        {
            "name" : "\u7f51\u683c.002",
            "primitives" : [
                {
                    "attributes" : {
                        "POSITION" : 0,
                        "NORMAL" : 1,
                        "TEXCOORD_0" : 2
                    },
                    "indices" : 3,
                    "material" : 0
                }
            ]
        }
    ],
    "textures" : [
        {
            "sampler" : 0,
            "source" : 0
        },
        {
            "sampler" : 0,
            "source" : 1
        },
        {
            "sampler" : 0,
            "source" : 2
        }
    ],
    "images" : [
        {
            "mimeType" : "image/jpeg",
            "name" : "1_normal",
            "uri" : "1_normal.jpg"
        },
        {
            "mimeType" : "image/jpeg",
            "name" : "1_diffuse",
            "uri" : "1_diffuse.jpg"
        },
        {
            "mimeType" : "image/png",
            "name" : "1_metallicity-1_roughness",
            "uri" : "1_metallicity-1_roughness.png"
        }
    ],
    "accessors" : [
        {
            "bufferView" : 0,
            "componentType" : 5126,
            "count" : 19679,
            "max" : [
                0.4092690050601959,
                0.7567852735519409,
                0.1622428596019745
            ],
            "min" : [
                -0.4092690050601959,
                0.1029328852891922,
                -0.1623571813106537
            ],
            "type" : "VEC3"
        },
        {
            "bufferView" : 1,
            "componentType" : 5126,
            "count" : 19679,
            "type" : "VEC3"
        },
        {
            "bufferView" : 2,
            "componentType" : 5126,
            "count" : 19679,
            "type" : "VEC2"
        },
        {
            "bufferView" : 3,
            "componentType" : 5123,
            "count" : 113136,
            "type" : "SCALAR"
        }
    ],
    "bufferViews" : [
        {
            "buffer" : 0,
            "byteLength" : 236148,
            "byteOffset" : 0
        },
        {
            "buffer" : 0,
            "byteLength" : 236148,
            "byteOffset" : 236148
        },
        {
            "buffer" : 0,
            "byteLength" : 157432,
            "byteOffset" : 472296
        },
        {
            "buffer" : 0,
            "byteLength" : 226272,
            "byteOffset" : 629728
        }
    ],
    "samplers" : [
        {
            "magFilter" : 9729,
            "minFilter" : 9987
        }
    ],
    "buffers" : [
        {
            "byteLength" : 856000,
            "uri" : "body.bin"
        }
    ]
}
