{
    "asset" : {
        "generator" : "Khronos glTF Blender I/O v1.8.19",
        "version" : "2.0"
    },
    "scene" : 0,
    "scenes" : [
        {
            "name" : "Scene",
            "nodes" : [
                0
            ]
        }
    ],
    "nodes" : [
        {
            "mesh" : 0,
            "name" : "base"
        }
    ],
    "materials" : [
        {
            "doubleSided" : true,
            "name" : "03_Base",
            "normalTexture" : {
                "index" : 0
            },
            "pbrMetallicRoughness" : {
                "baseColorTexture" : {
                    "index" : 1
                },
                "metallicRoughnessTexture" : {
                    "index" : 2
                }
            }
        }
    ],
    "meshes" : [
        {
            "name" : "\u7f51\u683c",
            "primitives" : [
                {
                    "attributes" : {
                        "POSITION" : 0,
                        "NORMAL" : 1,
                        "TEXCOORD_0" : 2
                    },
                    "indices" : 3,
                    "material" : 0
                }
            ]
        }
    ],
    "textures" : [
        {
            "sampler" : 0,
            "source" : 0
        },
        {
            "sampler" : 0,
            "source" : 1
        },
        {
            "sampler" : 0,
            "source" : 2
        }
    ],
    "images" : [
        {
            "mimeType" : "image/jpeg",
            "name" : "2_normal",
            "uri" : "2_normal.jpg"
        },
        {
            "mimeType" : "image/jpeg",
            "name" : "2_diffuse",
            "uri" : "2_diffuse.jpg"
        },
        {
            "mimeType" : "image/png",
            "name" : "2_metallicity-2_roughness",
            "uri" : "2_metallicity-2_roughness.png"
        }
    ],
    "accessors" : [
        {
            "bufferView" : 0,
            "componentType" : 5126,
            "count" : 2004,
            "max" : [
                0.4125995934009552,
                0.10339993983507156,
                0.47615066170692444
            ],
            "min" : [
                -0.4125995934009552,
                -2.9103830456733704e-08,
                -0.47615355253219604
            ],
            "type" : "VEC3"
        },
        {
            "bufferView" : 1,
            "componentType" : 5126,
            "count" : 2004,
            "type" : "VEC3"
        },
        {
            "bufferView" : 2,
            "componentType" : 5126,
            "count" : 2004,
            "type" : "VEC2"
        },
        {
            "bufferView" : 3,
            "componentType" : 5123,
            "count" : 3000,
            "type" : "SCALAR"
        }
    ],
    "bufferViews" : [
        {
            "buffer" : 0,
            "byteLength" : 24048,
            "byteOffset" : 0
        },
        {
            "buffer" : 0,
            "byteLength" : 24048,
            "byteOffset" : 24048
        },
        {
            "buffer" : 0,
            "byteLength" : 16032,
            "byteOffset" : 48096
        },
        {
            "buffer" : 0,
            "byteLength" : 6000,
            "byteOffset" : 64128
        }
    ],
    "samplers" : [
        {
            "magFilter" : 9729,
            "minFilter" : 9987
        }
    ],
    "buffers" : [
        {
            "byteLength" : 70128,
            "uri" : "dizuo.bin"
        }
    ]
}
