{
    "asset" : {
        "generator" : "Khronos glTF Blender I/O v1.8.19",
        "version" : "2.0"
    },
    "scene" : 0,
    "scenes" : [
        {
            "name" : "Scene",
            "nodes" : [
                0
            ]
        }
    ],
    "nodes" : [
        {
            "mesh" : 0,
            "name" : "head"
        }
    ],
    "materials" : [
        {
            "doubleSided" : true,
            "name" : "01_Head",
            "normalTexture" : {
                "index" : 0
            },
            "pbrMetallicRoughness" : {
                "baseColorTexture" : {
                    "index" : 1
                },
                "metallicRoughnessTexture" : {
                    "index" : 2
                }
            }
        }
    ],
    "meshes" : [
        {
            "name" : "\u7f51\u683c.001",
            "primitives" : [
                {
                    "attributes" : {
                        "POSITION" : 0,
                        "NORMAL" : 1,
                        "TEXCOORD_0" : 2
                    },
                    "indices" : 3,
                    "material" : 0
                }
            ]
        }
    ],
    "textures" : [
        {
            "sampler" : 0,
            "source" : 0
        },
        {
            "sampler" : 0,
            "source" : 1
        },
        {
            "sampler" : 0,
            "source" : 2
        }
    ],
    "images" : [
        {
            "mimeType" : "image/jpeg",
            "name" : "0_normal",
            "uri" : "0_normal.jpg"
        },
        {
            "mimeType" : "image/jpeg",
            "name" : "0_diffuse",
            "uri" : "0_diffuse.jpg"
        },
        {
            "mimeType" : "image/png",
            "name" : "0_metallicity-0_roughness",
            "uri" : "0_metallicity-0_roughness.png"
        }
    ],
    "accessors" : [
        {
            "bufferView" : 0,
            "componentType" : 5126,
            "count" : 21276,
            "max" : [
                0.3738178014755249,
                1.4426440000534058,
                0.3403855860233307
            ],
            "min" : [
                -0.3738180100917816,
                0.6950081586837769,
                -0.3246385157108307
            ],
            "type" : "VEC3"
        },
        {
            "bufferView" : 1,
            "componentType" : 5126,
            "count" : 21276,
            "type" : "VEC3"
        },
        {
            "bufferView" : 2,
            "componentType" : 5126,
            "count" : 21276,
            "type" : "VEC2"
        },
        {
            "bufferView" : 3,
            "componentType" : 5123,
            "count" : 121110,
            "type" : "SCALAR"
        }
    ],
    "bufferViews" : [
        {
            "buffer" : 0,
            "byteLength" : 255312,
            "byteOffset" : 0
        },
        {
            "buffer" : 0,
            "byteLength" : 255312,
            "byteOffset" : 255312
        },
        {
            "buffer" : 0,
            "byteLength" : 170208,
            "byteOffset" : 510624
        },
        {
            "buffer" : 0,
            "byteLength" : 242220,
            "byteOffset" : 680832
        }
    ],
    "samplers" : [
        {
            "magFilter" : 9729,
            "minFilter" : 9987
        }
    ],
    "buffers" : [
        {
            "byteLength" : 923052,
            "uri" : "head.bin"
        }
    ]
}
