{
    "asset" : {
        "generator" : "Khronos glTF Blender I/O v1.8.19",
        "version" : "2.0"
    },
    "scene" : 0,
    "scenes" : [
        {
            "name" : "Scene",
            "nodes" : [
                0
            ]
        }
    ],
    "nodes" : [
        {
            "mesh" : 0,
            "name" : "\u52a8\u7269_\u72d7"
        }
    ],
    "materials" : [
        {
            "doubleSided" : true,
            "name" : "jq015",
            "pbrMetallicRoughness" : {
                "baseColorFactor" : [
                    0.6901959776878357,
                    0.34509798884391785,
                    0.67843097448349,
                    1
                ],
                "metallicFactor" : 0
            }
        },
        {
            "doubleSided" : true,
            "name" : "jq016",
            "pbrMetallicRoughness" : {
                "baseColorTexture" : {
                    "index" : 0
                },
                "metallicFactor" : 0
            }
        },
        {
            "doubleSided" : true,
            "name" : "jq017",
            "pbrMetallicRoughness" : {
                "baseColorFactor" : [
                    0.274509996175766,
                    0.274509996175766,
                    0.274509996175766,
                    1
                ],
                "metallicFactor" : 0,
                "roughnessFactor" : 0.9409449100494385
            }
        }
    ],
    "meshes" : [
        {
            "name" : "Obj3d66-792798-14-386",
            "primitives" : [
                {
                    "attributes" : {
                        "POSITION" : 0,
                        "NORMAL" : 1,
                        "TEXCOORD_0" : 2
                    },
                    "indices" : 3,
                    "material" : 0
                },
                {
                    "attributes" : {
                        "POSITION" : 4,
                        "NORMAL" : 5,
                        "TEXCOORD_0" : 6
                    },
                    "indices" : 7,
                    "material" : 1
                },
                {
                    "attributes" : {
                        "POSITION" : 8,
                        "NORMAL" : 9,
                        "TEXCOORD_0" : 10
                    },
                    "indices" : 11,
                    "material" : 2
                }
            ]
        }
    ],
    "textures" : [
        {
            "sampler" : 0,
            "source" : 0
        }
    ],
    "images" : [
        {
            "bufferView" : 8,
            "mimeType" : "image/jpeg",
            "name" : "Image_0"
        }
    ],
    "accessors" : [
        {
            "bufferView" : 0,
            "componentType" : 5126,
            "count" : 5872,
            "max" : [
                0.013855026103556156,
                0.029762662947177887,
                0.01626421883702278
            ],
            "min" : [
                0.00382695603184402,
                0.0249406136572361,
                0.0066078947857022285
            ],
            "type" : "VEC3"
        },
        {
            "bufferView" : 1,
            "componentType" : 5126,
            "count" : 5872,
            "type" : "VEC3"
        },
        {
            "bufferView" : 2,
            "componentType" : 5126,
            "count" : 5872,
            "type" : "VEC2"
        },
        {
            "bufferView" : 3,
            "componentType" : 5123,
            "count" : 10584,
            "type" : "SCALAR"
        },
        {
            "bufferView" : 4,
            "componentType" : 5126,
            "count" : 18964,
            "max" : [
                0.017180759459733963,
                0.037753619253635406,
                0.018307313323020935
            ],
            "min" : [
                -0.017180759459733963,
                0,
                -0.018307313323020935
            ],
            "type" : "VEC3"
        },
        {
            "bufferView" : 5,
            "componentType" : 5126,
            "count" : 18964,
            "type" : "VEC3"
        },
        {
            "bufferView" : 6,
            "componentType" : 5126,
            "count" : 18964,
            "type" : "VEC2"
        },
        {
            "bufferView" : 7,
            "componentType" : 5123,
            "count" : 105204,
            "type" : "SCALAR"
        },
        {
            "bufferView" : 9,
            "componentType" : 5126,
            "count" : 384,
            "max" : [
                0.013195364736020565,
                0.026788711547851562,
                0.014675624668598175
            ],
            "min" : [
                0.008691909722983837,
                0.0252486914396286,
                0.013766899704933167
            ],
            "type" : "VEC3"
        },
        {
            "bufferView" : 10,
            "componentType" : 5126,
            "count" : 384,
            "type" : "VEC3"
        },
        {
            "bufferView" : 11,
            "componentType" : 5126,
            "count" : 384,
            "type" : "VEC2"
        },
        {
            "bufferView" : 12,
            "componentType" : 5123,
            "count" : 576,
            "type" : "SCALAR"
        }
    ],
    "bufferViews" : [
        {
            "buffer" : 0,
            "byteLength" : 70464,
            "byteOffset" : 0
        },
        {
            "buffer" : 0,
            "byteLength" : 70464,
            "byteOffset" : 70464
        },
        {
            "buffer" : 0,
            "byteLength" : 46976,
            "byteOffset" : 140928
        },
        {
            "buffer" : 0,
            "byteLength" : 21168,
            "byteOffset" : 187904
        },
        {
            "buffer" : 0,
            "byteLength" : 227568,
            "byteOffset" : 209072
        },
        {
            "buffer" : 0,
            "byteLength" : 227568,
            "byteOffset" : 436640
        },
        {
            "buffer" : 0,
            "byteLength" : 151712,
            "byteOffset" : 664208
        },
        {
            "buffer" : 0,
            "byteLength" : 210408,
            "byteOffset" : 815920
        },
        {
            "buffer" : 0,
            "byteLength" : 245703,
            "byteOffset" : 1026328
        },
        {
            "buffer" : 0,
            "byteLength" : 4608,
            "byteOffset" : 1272032
        },
        {
            "buffer" : 0,
            "byteLength" : 4608,
            "byteOffset" : 1276640
        },
        {
            "buffer" : 0,
            "byteLength" : 3072,
            "byteOffset" : 1281248
        },
        {
            "buffer" : 0,
            "byteLength" : 1152,
            "byteOffset" : 1284320
        }
    ],
    "samplers" : [
        {
            "magFilter" : 9729,
            "minFilter" : 9987
        }
    ],
    "buffers" : [
        {
            "byteLength" : 1285472,
            "uri" : "data:application/octet-stream;base64,"
        }
    ]
}
