{
	"asset":
	{
		"version": "2.0",
		"generator": "Unreal Engine 5.1.1 glTF Exporter 1.3.1"
	},
	"scene": 0,
	"accessors": [
		{
			"bufferView": 0,
			"count": 6,
			"type": "SCALAR",
			"componentType": 5121
		},
		{
			"bufferView": 1,
			"count": 4,
			"type": "VEC3",
			"componentType": 5126,
			"min": [ -19.2173443, -5.95743206e-16, -9.72922421 ],
			"max": [ 19.2173443, 5.95743206e-16, 9.72922421 ]
		},
		{
			"bufferView": 2,
			"count": 4,
			"type": "VEC3",
			"componentType": 5126
		},
		{
			"bufferView": 3,
			"count": 4,
			"type": "VEC4",
			"componentType": 5126
		},
		{
			"bufferView": 4,
			"count": 4,
			"type": "VEC2",
			"componentType": 5126
		},
		{
			"bufferView": 5,
			"count": 4,
			"type": "VEC2",
			"componentType": 5126
		},
		{
			"bufferView": 6,
			"count": 432,
			"type": "SCALAR",
			"componentType": 5123
		},
		{
			"bufferView": 7,
			"count": 288,
			"type": "VEC3",
			"componentType": 5126,
			"min": [ -13.6999989, 3.67971373, -9.09999943 ],
			"max": [ 13.6999989, 4.50949287, 9.09999943 ]
		},
		{
			"bufferView": 8,
			"count": 288,
			"type": "VEC3",
			"componentType": 5126
		},
		{
			"bufferView": 9,
			"count": 288,
			"type": "VEC4",
			"componentType": 5126
		},
		{
			"bufferView": 10,
			"count": 288,
			"type": "VEC2",
			"componentType": 5126
		},
		{
			"bufferView": 11,
			"count": 288,
			"type": "VEC2",
			"componentType": 5126
		},
		{
			"bufferView": 12,
			"count": 1008,
			"type": "SCALAR",
			"componentType": 5123
		},
		{
			"bufferView": 13,
			"count": 649,
			"type": "VEC3",
			"componentType": 5126,
			"min": [ -10.5804729, -0.00864257757, -9.09999943 ],
			"max": [ 7.0956912, 2.04087162, 4.12683678 ]
		},
		{
			"bufferView": 14,
			"count": 649,
			"type": "VEC3",
			"componentType": 5126
		},
		{
			"bufferView": 15,
			"count": 649,
			"type": "VEC4",
			"componentType": 5126
		},
		{
			"bufferView": 16,
			"count": 649,
			"type": "VEC2",
			"componentType": 5126
		},
		{
			"bufferView": 17,
			"count": 649,
			"type": "VEC2",
			"componentType": 5126
		},
		{
			"bufferView": 18,
			"count": 2940,
			"type": "SCALAR",
			"componentType": 5123
		},
		{
			"bufferView": 19,
			"count": 1312,
			"type": "VEC3",
			"componentType": 5126,
			"min": [ -13.7028685, -5.58155908e-16, -9.11537743 ],
			"max": [ 13.7028685, 4.53713274, 9.10948753 ]
		},
		{
			"bufferView": 20,
			"count": 1312,
			"type": "VEC3",
			"componentType": 5126
		},
		{
			"bufferView": 21,
			"count": 1312,
			"type": "VEC4",
			"componentType": 5126
		},
		{
			"bufferView": 22,
			"count": 1312,
			"type": "VEC2",
			"componentType": 5126
		},
		{
			"bufferView": 23,
			"count": 1312,
			"type": "VEC2",
			"componentType": 5126
		},
		{
			"bufferView": 24,
			"count": 2190,
			"type": "SCALAR",
			"componentType": 5123
		},
		{
			"bufferView": 25,
			"count": 1460,
			"type": "VEC3",
			"componentType": 5126,
			"min": [ -12.1346455, -5.57214272e-16, -9.09999943 ],
			"max": [ 12.7764168, 3.67567492, 8.99950218 ]
		},
		{
			"bufferView": 26,
			"count": 1460,
			"type": "VEC3",
			"componentType": 5126
		},
		{
			"bufferView": 27,
			"count": 1460,
			"type": "VEC4",
			"componentType": 5126
		},
		{
			"bufferView": 28,
			"count": 1460,
			"type": "VEC2",
			"componentType": 5126
		},
		{
			"bufferView": 29,
			"count": 1460,
			"type": "VEC2",
			"componentType": 5126
		},
		{
			"bufferView": 30,
			"count": 5472,
			"type": "SCALAR",
			"componentType": 5123
		},
		{
			"bufferView": 31,
			"count": 2448,
			"type": "VEC3",
			"componentType": 5126,
			"min": [ -12.2321749, -0.0920696408, -9.0760088 ],
			"max": [ 12.8739462, 3.7577126, 9.08557415 ]
		},
		{
			"bufferView": 32,
			"count": 2448,
			"type": "VEC3",
			"componentType": 5126
		},
		{
			"bufferView": 33,
			"count": 2448,
			"type": "VEC4",
			"componentType": 5126
		},
		{
			"bufferView": 34,
			"count": 2448,
			"type": "VEC2",
			"componentType": 5126
		},
		{
			"bufferView": 35,
			"count": 2448,
			"type": "VEC2",
			"componentType": 5126
		},
		{
			"bufferView": 36,
			"count": 180,
			"type": "SCALAR",
			"componentType": 5121
		},
		{
			"bufferView": 37,
			"count": 120,
			"type": "VEC3",
			"componentType": 5126,
			"min": [ -13.6759348, -3.2043456e-06, -8.38658524 ],
			"max": [ 13.4683723, 1.99999678, 8.41201115 ]
		},
		{
			"bufferView": 38,
			"count": 120,
			"type": "VEC3",
			"componentType": 5126
		},
		{
			"bufferView": 39,
			"count": 120,
			"type": "VEC4",
			"componentType": 5126
		},
		{
			"bufferView": 40,
			"count": 120,
			"type": "VEC2",
			"componentType": 5126
		},
		{
			"bufferView": 41,
			"count": 120,
			"type": "VEC2",
			"componentType": 5126
		},
		{
			"bufferView": 42,
			"count": 72,
			"type": "SCALAR",
			"componentType": 5121
		},
		{
			"bufferView": 43,
			"count": 40,
			"type": "VEC3",
			"componentType": 5126,
			"min": [ -10.6258869, -0.116123311, 2.63474917 ],
			"max": [ 10.6258869, 0.0149669247, 4.51953936 ]
		},
		{
			"bufferView": 44,
			"count": 40,
			"type": "VEC3",
			"componentType": 5126
		},
		{
			"bufferView": 45,
			"count": 40,
			"type": "VEC4",
			"componentType": 5126
		},
		{
			"bufferView": 46,
			"count": 40,
			"type": "VEC2",
			"componentType": 5126
		},
		{
			"bufferView": 47,
			"count": 40,
			"type": "VEC2",
			"componentType": 5126
		},
		{
			"bufferView": 48,
			"count": 36,
			"type": "SCALAR",
			"componentType": 5121
		},
		{
			"bufferView": 49,
			"count": 24,
			"type": "VEC3",
			"componentType": 5126,
			"min": [ 4.12314129, 0.805698454, 0.348080575 ],
			"max": [ 4.66959572, 1.7477082, 0.532839715 ]
		},
		{
			"bufferView": 50,
			"count": 24,
			"type": "VEC3",
			"componentType": 5126
		},
		{
			"bufferView": 51,
			"count": 24,
			"type": "VEC4",
			"componentType": 5126
		},
		{
			"bufferView": 52,
			"count": 24,
			"type": "VEC2",
			"componentType": 5126
		},
		{
			"bufferView": 53,
			"count": 24,
			"type": "VEC2",
			"componentType": 5126
		}
	],
	"buffers": [
		{
			"uri": "DingLeiChangFang.bin",
			"byteLength": 379700
		}
	],
	"bufferViews": [
		{
			"buffer": 0,
			"byteLength": 6,
			"target": 34963
		},
		{
			"buffer": 0,
			"byteLength": 48,
			"byteOffset": 8,
			"target": 34962
		},
		{
			"buffer": 0,
			"byteLength": 48,
			"byteOffset": 56,
			"target": 34962
		},
		{
			"buffer": 0,
			"byteLength": 64,
			"byteOffset": 104,
			"target": 34962
		},
		{
			"buffer": 0,
			"byteLength": 32,
			"byteOffset": 168,
			"target": 34962
		},
		{
			"buffer": 0,
			"byteLength": 32,
			"byteOffset": 200,
			"target": 34962
		},
		{
			"buffer": 0,
			"byteLength": 864,
			"byteOffset": 232,
			"target": 34963
		},
		{
			"buffer": 0,
			"byteLength": 3456,
			"byteOffset": 1096,
			"target": 34962
		},
		{
			"buffer": 0,
			"byteLength": 3456,
			"byteOffset": 4552,
			"target": 34962
		},
		{
			"buffer": 0,
			"byteLength": 4608,
			"byteOffset": 8008,
			"target": 34962
		},
		{
			"buffer": 0,
			"byteLength": 2304,
			"byteOffset": 12616,
			"target": 34962
		},
		{
			"buffer": 0,
			"byteLength": 2304,
			"byteOffset": 14920,
			"target": 34962
		},
		{
			"buffer": 0,
			"byteLength": 2016,
			"byteOffset": 17224,
			"target": 34963
		},
		{
			"buffer": 0,
			"byteLength": 7788,
			"byteOffset": 19240,
			"target": 34962
		},
		{
			"buffer": 0,
			"byteLength": 7788,
			"byteOffset": 27028,
			"target": 34962
		},
		{
			"buffer": 0,
			"byteLength": 10384,
			"byteOffset": 34816,
			"target": 34962
		},
		{
			"buffer": 0,
			"byteLength": 5192,
			"byteOffset": 45200,
			"target": 34962
		},
		{
			"buffer": 0,
			"byteLength": 5192,
			"byteOffset": 50392,
			"target": 34962
		},
		{
			"buffer": 0,
			"byteLength": 5880,
			"byteOffset": 55584,
			"target": 34963
		},
		{
			"buffer": 0,
			"byteLength": 15744,
			"byteOffset": 61464,
			"target": 34962
		},
		{
			"buffer": 0,
			"byteLength": 15744,
			"byteOffset": 77208,
			"target": 34962
		},
		{
			"buffer": 0,
			"byteLength": 20992,
			"byteOffset": 92952,
			"target": 34962
		},
		{
			"buffer": 0,
			"byteLength": 10496,
			"byteOffset": 113944,
			"target": 34962
		},
		{
			"buffer": 0,
			"byteLength": 10496,
			"byteOffset": 124440,
			"target": 34962
		},
		{
			"buffer": 0,
			"byteLength": 4380,
			"byteOffset": 134936,
			"target": 34963
		},
		{
			"buffer": 0,
			"byteLength": 17520,
			"byteOffset": 139316,
			"target": 34962
		},
		{
			"buffer": 0,
			"byteLength": 17520,
			"byteOffset": 156836,
			"target": 34962
		},
		{
			"buffer": 0,
			"byteLength": 23360,
			"byteOffset": 174356,
			"target": 34962
		},
		{
			"buffer": 0,
			"byteLength": 11680,
			"byteOffset": 197716,
			"target": 34962
		},
		{
			"buffer": 0,
			"byteLength": 11680,
			"byteOffset": 209396,
			"target": 34962
		},
		{
			"buffer": 0,
			"byteLength": 10944,
			"byteOffset": 221076,
			"target": 34963
		},
		{
			"buffer": 0,
			"byteLength": 29376,
			"byteOffset": 232020,
			"target": 34962
		},
		{
			"buffer": 0,
			"byteLength": 29376,
			"byteOffset": 261396,
			"target": 34962
		},
		{
			"buffer": 0,
			"byteLength": 39168,
			"byteOffset": 290772,
			"target": 34962
		},
		{
			"buffer": 0,
			"byteLength": 19584,
			"byteOffset": 329940,
			"target": 34962
		},
		{
			"buffer": 0,
			"byteLength": 19584,
			"byteOffset": 349524,
			"target": 34962
		},
		{
			"buffer": 0,
			"byteLength": 180,
			"byteOffset": 369108,
			"target": 34963
		},
		{
			"buffer": 0,
			"byteLength": 1440,
			"byteOffset": 369288,
			"target": 34962
		},
		{
			"buffer": 0,
			"byteLength": 1440,
			"byteOffset": 370728,
			"target": 34962
		},
		{
			"buffer": 0,
			"byteLength": 1920,
			"byteOffset": 372168,
			"target": 34962
		},
		{
			"buffer": 0,
			"byteLength": 960,
			"byteOffset": 374088,
			"target": 34962
		},
		{
			"buffer": 0,
			"byteLength": 960,
			"byteOffset": 375048,
			"target": 34962
		},
		{
			"buffer": 0,
			"byteLength": 72,
			"byteOffset": 376008,
			"target": 34963
		},
		{
			"buffer": 0,
			"byteLength": 480,
			"byteOffset": 376080,
			"target": 34962
		},
		{
			"buffer": 0,
			"byteLength": 480,
			"byteOffset": 376560,
			"target": 34962
		},
		{
			"buffer": 0,
			"byteLength": 640,
			"byteOffset": 377040,
			"target": 34962
		},
		{
			"buffer": 0,
			"byteLength": 320,
			"byteOffset": 377680,
			"target": 34962
		},
		{
			"buffer": 0,
			"byteLength": 320,
			"byteOffset": 378000,
			"target": 34962
		},
		{
			"buffer": 0,
			"byteLength": 36,
			"byteOffset": 378320,
			"target": 34963
		},
		{
			"buffer": 0,
			"byteLength": 288,
			"byteOffset": 378356,
			"target": 34962
		},
		{
			"buffer": 0,
			"byteLength": 288,
			"byteOffset": 378644,
			"target": 34962
		},
		{
			"buffer": 0,
			"byteLength": 384,
			"byteOffset": 378932,
			"target": 34962
		},
		{
			"buffer": 0,
			"byteLength": 192,
			"byteOffset": 379316,
			"target": 34962
		},
		{
			"buffer": 0,
			"byteLength": 192,
			"byteOffset": 379508,
			"target": 34962
		}
	],
	"materials": [
		{
			"name": "lambert1",
			"pbrMetallicRoughness":
			{
				"baseColorFactor": [ 0.5, 0.5, 0.5, 1 ],
				"metallicFactor": 0,
				"roughnessFactor": 0.5
			}
		},
		{
			"name": "blinn6",
			"pbrMetallicRoughness":
			{
				"baseColorFactor": [ 0.896103919, 0.896103919, 0.896103919, 1 ],
				"metallicFactor": 0,
				"roughnessFactor": 0.5
			}
		},
		{
			"name": "blinn5",
			"pbrMetallicRoughness":
			{
				"baseColorFactor": [ 0.266233772, 0.266233772, 0.266233772, 1 ],
				"metallicFactor": 0,
				"roughnessFactor": 0.5
			}
		},
		{
			"name": "blinn1",
			"pbrMetallicRoughness":
			{
				"baseColorFactor": [ 0.857142866, 0.857142866, 0.857142866, 1 ],
				"metallicFactor": 0,
				"roughnessFactor": 0.5
			}
		},
		{
			"name": "blinn2",
			"pbrMetallicRoughness":
			{
				"baseColorFactor": [ 0.613319993, 0.617365897, 0.75999999, 1 ],
				"metallicFactor": 0,
				"roughnessFactor": 0.5
			}
		},
		{
			"name": "blinn3",
			"pbrMetallicRoughness":
			{
				"baseColorFactor": [ 0.13636364, 0.13636364, 0.13636364, 1 ],
				"metallicFactor": 0,
				"roughnessFactor": 0.5
			}
		},
		{
			"name": "blinn4",
			"pbrMetallicRoughness":
			{
				"baseColorFactor": [ 0.240999997, 0.0863890871, 0.0098810019, 1 ],
				"metallicFactor": 0,
				"roughnessFactor": 0.5
			}
		},
		{
			"name": "blinn7",
			"pbrMetallicRoughness":
			{
				"baseColorFactor": [ 1, 0.53793335, 0, 1 ],
				"metallicFactor": 0,
				"roughnessFactor": 0.5
			}
		},
		{
			"name": "blinn8",
			"pbrMetallicRoughness":
			{
				"baseColorFactor": [ 1, 0, 0, 1 ],
				"metallicFactor": 0,
				"roughnessFactor": 0.5
			}
		}
	],
	"meshes": [
		{
			"name": "DingLeiChangFang",
			"primitives": [
				{
					"attributes":
					{
						"POSITION": 1,
						"NORMAL": 2,
						"TANGENT": 3,
						"TEXCOORD_0": 4,
						"TEXCOORD_1": 5
					},
					"indices": 0,
					"material": 0
				},
				{
					"attributes":
					{
						"POSITION": 7,
						"NORMAL": 8,
						"TANGENT": 9,
						"TEXCOORD_0": 10,
						"TEXCOORD_1": 11
					},
					"indices": 6,
					"material": 1
				},
				{
					"attributes":
					{
						"POSITION": 13,
						"NORMAL": 14,
						"TANGENT": 15,
						"TEXCOORD_0": 16,
						"TEXCOORD_1": 17
					},
					"indices": 12,
					"material": 2
				},
				{
					"attributes":
					{
						"POSITION": 19,
						"NORMAL": 20,
						"TANGENT": 21,
						"TEXCOORD_0": 22,
						"TEXCOORD_1": 23
					},
					"indices": 18,
					"material": 3
				},
				{
					"attributes":
					{
						"POSITION": 25,
						"NORMAL": 26,
						"TANGENT": 27,
						"TEXCOORD_0": 28,
						"TEXCOORD_1": 29
					},
					"indices": 24,
					"material": 4
				},
				{
					"attributes":
					{
						"POSITION": 31,
						"NORMAL": 32,
						"TANGENT": 33,
						"TEXCOORD_0": 34,
						"TEXCOORD_1": 35
					},
					"indices": 30,
					"material": 5
				},
				{
					"attributes":
					{
						"POSITION": 37,
						"NORMAL": 38,
						"TANGENT": 39,
						"TEXCOORD_0": 40,
						"TEXCOORD_1": 41
					},
					"indices": 36,
					"material": 6
				},
				{
					"attributes":
					{
						"POSITION": 43,
						"NORMAL": 44,
						"TANGENT": 45,
						"TEXCOORD_0": 46,
						"TEXCOORD_1": 47
					},
					"indices": 42,
					"material": 7
				},
				{
					"attributes":
					{
						"POSITION": 49,
						"NORMAL": 50,
						"TANGENT": 51,
						"TEXCOORD_0": 52,
						"TEXCOORD_1": 53
					},
					"indices": 48,
					"material": 8
				}
			]
		}
	],
	"nodes": [
		{
			"mesh": 0
		}
	],
	"scenes": [
		{
			"nodes": [ 0 ]
		}
	]
}