{
  "accessors": [
    {
      "bufferView": 2,
      "componentType": 5126,
      "count": 1466,
      "max": [
        0.8635140061378479,
        -0.2740969955921173,
        0.20216800272464752
      ],
      "min": [
        -0.8501750230789185,
        -0.42857998609542847,
        0.04770699888467789
      ],
      "type": "VEC3"
    },
    {
      "bufferView": 2,
      "byteOffset": 17592,
      "componentType": 5126,
      "count": 1466,
      "max": [
        0.9915077686309814,
        0.9905458688735962,
        0.9966168999671936
      ],
      "min": [
        -0.9915045499801636,
        -0.9949586391448975,
        -0.980599582195282
      ],
      "type": "VEC3"
    },
    {
      "bufferView": 3,
      "componentType": 5126,
      "count": 1466,
      "max": [
        0.9999309778213501,
        0.9840553998947144,
        0.9890094995498657,
        1.0
      ],
      "min": [
        -0.9999309778213501,
        -0.9986162185668945,
        -0.9982231259346008,
        1.0
      ],
      "type": "VEC4"
    },
    {
      "bufferView": 1,
      "componentType": 5126,
      "count": 1466,
      "max": [
        0.8542309999465942,
        0.8604360222816467
      ],
      "min": [
        0.1578650027513504,
        0.6768919825553894
      ],
      "type": "VEC2"
    },
    {
      "bufferView": 0,
      "componentType": 5125,
      "count": 5688,
      "type": "SCALAR"
    },
    {
      "bufferView": 2,
      "byteOffset": 35184,
      "componentType": 5126,
      "count": 3199,
      "max": [
        1.6835190057754517,
        0.6867390275001526,
        0.2679069936275482
      ],
      "min": [
        -1.7607799768447876,
        -0.6867390275001526,
        -1.1055699586868286
      ],
      "type": "VEC3"
    },
    {
      "bufferView": 2,
      "byteOffset": 73572,
      "componentType": 5126,
      "count": 3199,
      "max": [
        1.0,
        1.0,
        1.0
      ],
      "min": [
        -1.0,
        -0.9999855160713196,
        -1.0
      ],
      "type": "VEC3"
    },
    {
      "bufferView": 3,
      "byteOffset": 23456,
      "componentType": 5126,
      "count": 3199,
      "max": [
        0.9975716471672058,
        0.9998690485954285,
        0.9988406896591187,
        1.0
      ],
      "min": [
        -0.9979236125946045,
        -0.9960898756980896,
        -0.9998169541358948,
        1.0
      ],
      "type": "VEC4"
    },
    {
      "bufferView": 1,
      "byteOffset": 11728,
      "componentType": 5126,
      "count": 3199,
      "max": [
        0.9089229702949524,
        0.9113569855690002
      ],
      "min": [
        0.0,
        0.0
      ],
      "type": "VEC2"
    },
    {
      "bufferView": 0,
      "byteOffset": 22752,
      "componentType": 5125,
      "count": 13470,
      "type": "SCALAR"
    },
    {
      "bufferView": 2,
      "byteOffset": 111960,
      "componentType": 5126,
      "count": 38088,
      "max": [
        0.9975669980049133,
        -0.2522689998149872,
        -0.04023100063204765
      ],
      "min": [
        -1.074828028678894,
        -0.6818190217018127,
        -1.040174961090088
      ],
      "type": "VEC3"
    },
    {
      "bufferView": 2,
      "byteOffset": 569016,
      "componentType": 5126,
      "count": 38088,
      "max": [
        0.9360997676849365,
        0.9755527377128601,
        0.975945770740509
      ],
      "min": [
        -0.9360983967781067,
        -0.9929922223091125,
        -0.9927782416343689
      ],
      "type": "VEC3"
    },
    {
      "bufferView": 3,
      "byteOffset": 74640,
      "componentType": 5126,
      "count": 38088,
      "max": [
        0.7873238325119019,
        0.9601901173591614,
        0.9881652593612671,
        1.0
      ],
      "min": [
        -0.7864387631416321,
        -0.9760610461235046,
        -0.9760639667510986,
        1.0
      ],
      "type": "VEC4"
    },
    {
      "bufferView": 1,
      "byteOffset": 37320,
      "componentType": 5126,
      "count": 38088,
      "max": [
        1.0,
        0.9999920129776001
      ],
      "min": [
        0.0,
        0.0
      ],
      "type": "VEC2"
    },
    {
      "bufferView": 0,
      "byteOffset": 76632,
      "componentType": 5125,
      "count": 57696,
      "type": "SCALAR"
    }
  ],
  "asset": {
    "extras": {
      "author": "Erdem Dağdelen (https://sketchfab.com/erdemdagdelen)",
      "license": "CC-BY-4.0 (http://creativecommons.org/licenses/by/4.0/)",
      "source": "https://sketchfab.com/3d-models/bluetooth-speaker-e5de4a6b4c13483aa5e2e7a81ab7228c",
      "title": "Bluetooth Speaker"
    },
    "generator": "Sketchfab-12.68.0",
    "version": "2.0"
  },
  "bufferViews": [
    {
      "buffer": 0,
      "byteLength": 307416,
      "name": "floatBufferViews",
      "target": 34963
    },
    {
      "buffer": 0,
      "byteLength": 342024,
      "byteOffset": 307416,
      "byteStride": 8,
      "name": "floatBufferViews",
      "target": 34962
    },
    {
      "buffer": 0,
      "byteLength": 1026072,
      "byteOffset": 649440,
      "byteStride": 12,
      "name": "floatBufferViews",
      "target": 34962
    },
    {
      "buffer": 0,
      "byteLength": 684048,
      "byteOffset": 1675512,
      "byteStride": 16,
      "name": "floatBufferViews",
      "target": 34962
    }
  ],
  "buffers": [
    {
      "byteLength": 2359560,
      "uri": "scene.bin"
    }
  ],
  "images": [
    {
      "uri": "textures/base_baseColor.jpeg"
    },
    {
      "uri": "textures/base_metallicRoughness.png"
    },
    {
      "uri": "textures/base_emissive.jpeg"
    },
    {
      "uri": "textures/base_normal.png"
    },
    {
      "uri": "textures/cage_baseColor.jpeg"
    },
    {
      "uri": "textures/cage_metallicRoughness.png"
    },
    {
      "uri": "textures/cage_normal.png"
    },
    {
      "uri": "textures/buttons_baseColor.jpeg"
    },
    {
      "uri": "textures/buttons_metallicRoughness.png"
    },
    {
      "uri": "textures/buttons_normal.png"
    }
  ],
  "materials": [
    {
      "doubleSided": true,
      "emissiveFactor": [
        1.0,
        1.0,
        1.0
      ],
      "emissiveTexture": {
        "index": 2
      },
      "name": "base",
      "normalTexture": {
        "index": 3
      },
      "occlusionTexture": {
        "index": 1
      },
      "pbrMetallicRoughness": {
        "baseColorTexture": {
          "index": 0
        },
        "metallicRoughnessTexture": {
          "index": 1
        }
      }
    },
    {
      "doubleSided": true,
      "name": "cage",
      "normalTexture": {
        "index": 6
      },
      "occlusionTexture": {
        "index": 5
      },
      "pbrMetallicRoughness": {
        "baseColorTexture": {
          "index": 4
        },
        "metallicRoughnessTexture": {
          "index": 5
        }
      }
    },
    {
      "doubleSided": true,
      "name": "buttons",
      "normalTexture": {
        "index": 9
      },
      "occlusionTexture": {
        "index": 8
      },
      "pbrMetallicRoughness": {
        "baseColorTexture": {
          "index": 7
        },
        "metallicRoughnessTexture": {
          "index": 8
        }
      }
    }
  ],
  "meshes": [
    {
      "name": "defaultMaterial",
      "primitives": [
        {
          "attributes": {
            "NORMAL": 1,
            "POSITION": 0,
            "TANGENT": 2,
            "TEXCOORD_0": 3
          },
          "indices": 4,
          "material": 2,
          "mode": 4
        }
      ]
    },
    {
      "name": "defaultMaterial",
      "primitives": [
        {
          "attributes": {
            "NORMAL": 6,
            "POSITION": 5,
            "TANGENT": 7,
            "TEXCOORD_0": 8
          },
          "indices": 9,
          "material": 0,
          "mode": 4
        }
      ]
    },
    {
      "name": "defaultMaterial",
      "primitives": [
        {
          "attributes": {
            "NORMAL": 11,
            "POSITION": 10,
            "TANGENT": 12,
            "TEXCOORD_0": 13
          },
          "indices": 14,
          "material": 1,
          "mode": 4
        }
      ]
    }
  ],
  "nodes": [
    {
      "children": [
        1
      ],
      "matrix": [
        1.0,
        0.0,
        0.0,
        0.0,
        0.0,
        2.220446049250313e-16,
        -1.0,
        0.0,
        0.0,
        1.0,
        2.220446049250313e-16,
        0.0,
        0.0,
        0.0,
        0.0,
        1.0
      ],
      "name": "Sketchfab_model"
    },
    {
      "children": [
        2,
        4
      ],
      "matrix": [
        1.0,
        0.0,
        0.0,
        0.0,
        0.0,
        -4.371139006309477e-08,
        0.999999999999999,
        0.0,
        0.0,
        -0.999999999999999,
        -4.371139006309477e-08,
        0.0,
        0.0,
        0.0,
        0.0,
        1.0
      ],
      "name": "Collada visual scene group"
    },
    {
      "children": [
        3
      ],
      "matrix": [
        100.0,
        0.0,
        0.0,
        0.0,
        0.0,
        -1.6e-05,
        -100.0,
        0.0,
        0.0,
        100.0,
        -1.6e-05,
        0.0,
        0.0,
        0.0,
        0.0,
        1.0
      ],
      "name": "Cylinder.004"
    },
    {
      "mesh": 0,
      "name": "defaultMaterial"
    },
    {
      "children": [
        5,
        6
      ],
      "matrix": [
        100.0,
        0.0,
        0.0,
        0.0,
        0.0,
        -1.6e-05,
        -100.0,
        0.0,
        0.0,
        100.0,
        -1.6e-05,
        0.0,
        0.0,
        0.0,
        0.0,
        1.0
      ],
      "name": "Cylinder"
    },
    {
      "mesh": 1,
      "name": "defaultMaterial"
    },
    {
      "children": [
        7
      ],
      "name": "Cylinder.002"
    },
    {
      "mesh": 2,
      "name": "defaultMaterial"
    }
  ],
  "samplers": [
    {
      "magFilter": 9729,
      "minFilter": 9987,
      "wrapS": 10497,
      "wrapT": 10497
    }
  ],
  "scene": 0,
  "scenes": [
    {
      "name": "Sketchfab_Scene",
      "nodes": [
        0
      ]
    }
  ],
  "textures": [
    {
      "sampler": 0,
      "source": 0
    },
    {
      "sampler": 0,
      "source": 1
    },
    {
      "sampler": 0,
      "source": 2
    },
    {
      "sampler": 0,
      "source": 3
    },
    {
      "sampler": 0,
      "source": 4
    },
    {
      "sampler": 0,
      "source": 5
    },
    {
      "sampler": 0,
      "source": 6
    },
    {
      "sampler": 0,
      "source": 7
    },
    {
      "sampler": 0,
      "source": 8
    },
    {
      "sampler": 0,
      "source": 9
    }
  ]
}
