{
    "asset" : {
        "generator" : "Khronos glTF Blender I/O v3.2.43",
        "version" : "2.0"
    },
    "scene" : 0,
    "scenes" : [
        {
            "name" : "Scene",
            "nodes" : [
                0,
                1,
                2,
                3
            ]
        }
    ],
    "nodes" : [
        {
            "mesh" : 0,
            "name" : "Object_9"
        },
        {
            "mesh" : 1,
            "name" : "Object_5",
            "translation" : [
                0,
                -0.05521933361887932,
                0.026919756084680557
            ]
        },
        {
            "mesh" : 2,
            "name" : "Screen",
            "translation" : [
                0,
                -0.05521933361887932,
                0.026919756084680557
            ]
        },
        {
            "mesh" : 3,
            "name" : "Object_7",
            "rotation" : [
                -0.7070589661598206,
                0,
                0,
                0.7071546912193298
            ],
            "scale" : [
                0.27191901206970215,
                0.27191901206970215,
                0.27191901206970215
            ],
            "translation" : [
                0,
                -0.05521933361887932,
                0.02691975235939026
            ]
        }
    ],
    "materials" : [
        {
            "doubleSided" : true,
            "name" : "Main_MAt",
            "pbrMetallicRoughness" : {
                "baseColorFactor" : [
                    0.012286487966775894,
                    0.012286487966775894,
                    0.012286487966775894,
                    1
                ],
                "metallicFactor" : 0,
                "roughnessFactor" : 0.5527864098548889
            }
        },
        {
            "doubleSided" : true,
            "name" : "Main",
            "pbrMetallicRoughness" : {
                "baseColorFactor" : [
                    0.012286487966775894,
                    0.012286487966775894,
                    0.012286487966775894,
                    1
                ],
                "metallicFactor" : 0,
                "roughnessFactor" : 0.5527864098548889
            }
        },
        {
            "doubleSided" : true,
            "emissiveFactor" : [
                1,
                1,
                1
            ],
            "name" : "Display",
            "pbrMetallicRoughness" : {
                "baseColorFactor" : [
                    0.800000011920929,
                    0.800000011920929,
                    0.800000011920929,
                    1
                ],
                "metallicFactor" : 0,
                "roughnessFactor" : 0.5527864098548889
            }
        },
        {
            "doubleSided" : true,
            "name" : "Stand",
            "pbrMetallicRoughness" : {
                "baseColorFactor" : [
                    0.012518225237727165,
                    0.012518225237727165,
                    0.012518225237727165,
                    1
                ],
                "metallicFactor" : 0,
                "roughnessFactor" : 0.5527864098548889
            }
        }
    ],
    "meshes" : [
        {
            "name" : "Mesh",
            "primitives" : [
                {
                    "attributes" : {
                        "POSITION" : 0,
                        "NORMAL" : 1,
                        "TEXCOORD_0" : 2
                    },
                    "indices" : 3,
                    "material" : 0
                }
            ]
        },
        {
            "name" : "Mesh.001",
            "primitives" : [
                {
                    "attributes" : {
                        "POSITION" : 4,
                        "NORMAL" : 5,
                        "TEXCOORD_0" : 6
                    },
                    "indices" : 7,
                    "material" : 1
                }
            ]
        },
        {
            "name" : "Mesh.002",
            "primitives" : [
                {
                    "attributes" : {
                        "POSITION" : 8,
                        "NORMAL" : 9,
                        "TEXCOORD_0" : 10
                    },
                    "indices" : 11,
                    "material" : 2
                }
            ]
        },
        {
            "name" : "Mesh.003",
            "primitives" : [
                {
                    "attributes" : {
                        "POSITION" : 12,
                        "NORMAL" : 13,
                        "TEXCOORD_0" : 14
                    },
                    "indices" : 15,
                    "material" : 3
                }
            ]
        }
    ],
    "accessors" : [
        {
            "bufferView" : 0,
            "componentType" : 5126,
            "count" : 1358,
            "max" : [
                0.9994563460350037,
                1.0834492444992065,
                0.17010313272476196
            ],
            "min" : [
                -1.011277437210083,
                -0.18542656302452087,
                -0.9430538415908813
            ],
            "type" : "VEC3"
        },
        {
            "bufferView" : 1,
            "componentType" : 5126,
            "count" : 1358,
            "type" : "VEC3"
        },
        {
            "bufferView" : 2,
            "componentType" : 5126,
            "count" : 1358,
            "type" : "VEC2"
        },
        {
            "bufferView" : 3,
            "componentType" : 5123,
            "count" : 1464,
            "type" : "SCALAR"
        },
        {
            "bufferView" : 4,
            "componentType" : 5126,
            "count" : 766,
            "max" : [
                1.9242645502090454,
                2.505762815475464,
                -0.23673224449157715
            ],
            "min" : [
                -1.9242645502090454,
                0.5057628154754639,
                -0.5006232857704163
            ],
            "type" : "VEC3"
        },
        {
            "bufferView" : 5,
            "componentType" : 5126,
            "count" : 766,
            "type" : "VEC3"
        },
        {
            "bufferView" : 6,
            "componentType" : 5126,
            "count" : 766,
            "type" : "VEC2"
        },
        {
            "bufferView" : 7,
            "componentType" : 5123,
            "count" : 918,
            "type" : "SCALAR"
        },
        {
            "bufferView" : 8,
            "componentType" : 5126,
            "count" : 44,
            "max" : [
                1.8669646978378296,
                2.448462963104248,
                -0.2611672282218933
            ],
            "min" : [
                -1.8669646978378296,
                0.5630626678466797,
                -0.2611672282218933
            ],
            "type" : "VEC3"
        },
        {
            "bufferView" : 9,
            "componentType" : 5126,
            "count" : 44,
            "type" : "VEC3"
        },
        {
            "bufferView" : 10,
            "componentType" : 5126,
            "count" : 44,
            "type" : "VEC2"
        },
        {
            "bufferView" : 11,
            "componentType" : 5123,
            "count" : 78,
            "type" : "SCALAR"
        },
        {
            "bufferView" : 12,
            "componentType" : 5126,
            "count" : 422,
            "max" : [
                1.5115774869918823,
                2.7585196495056152,
                4.6160688400268555
            ],
            "min" : [
                -1.5115772485733032,
                1.8415647745132446,
                2.6160690784454346
            ],
            "type" : "VEC3"
        },
        {
            "bufferView" : 13,
            "componentType" : 5126,
            "count" : 422,
            "type" : "VEC3"
        },
        {
            "bufferView" : 14,
            "componentType" : 5126,
            "count" : 422,
            "type" : "VEC2"
        },
        {
            "bufferView" : 15,
            "componentType" : 5123,
            "count" : 546,
            "type" : "SCALAR"
        }
    ],
    "bufferViews" : [
        {
            "buffer" : 0,
            "byteLength" : 16296,
            "byteOffset" : 0
        },
        {
            "buffer" : 0,
            "byteLength" : 16296,
            "byteOffset" : 16296
        },
        {
            "buffer" : 0,
            "byteLength" : 10864,
            "byteOffset" : 32592
        },
        {
            "buffer" : 0,
            "byteLength" : 2928,
            "byteOffset" : 43456
        },
        {
            "buffer" : 0,
            "byteLength" : 9192,
            "byteOffset" : 46384
        },
        {
            "buffer" : 0,
            "byteLength" : 9192,
            "byteOffset" : 55576
        },
        {
            "buffer" : 0,
            "byteLength" : 6128,
            "byteOffset" : 64768
        },
        {
            "buffer" : 0,
            "byteLength" : 1836,
            "byteOffset" : 70896
        },
        {
            "buffer" : 0,
            "byteLength" : 528,
            "byteOffset" : 72732
        },
        {
            "buffer" : 0,
            "byteLength" : 528,
            "byteOffset" : 73260
        },
        {
            "buffer" : 0,
            "byteLength" : 352,
            "byteOffset" : 73788
        },
        {
            "buffer" : 0,
            "byteLength" : 156,
            "byteOffset" : 74140
        },
        {
            "buffer" : 0,
            "byteLength" : 5064,
            "byteOffset" : 74296
        },
        {
            "buffer" : 0,
            "byteLength" : 5064,
            "byteOffset" : 79360
        },
        {
            "buffer" : 0,
            "byteLength" : 3376,
            "byteOffset" : 84424
        },
        {
            "buffer" : 0,
            "byteLength" : 1092,
            "byteOffset" : 87800
        }
    ],
    "buffers" : [
        {
            "byteLength" : 88892,
            "uri" : "scene.bin"
        }
    ]
}
